<?xml version="1.0" encoding="iso-8859-1"?>
<!-- Uploaded to: SVG Repo, www.svgrepo.com, Generator: SVG Repo Mixer Tools -->
<svg fill="#000000" height="800px" width="800px" version="1.1" id="Layer_1" xmlns="http://www.w3.org/2000/svg" xmlns:xlink="http://www.w3.org/1999/xlink" 
	 viewBox="0 0 512 512" xml:space="preserve">
<g>
	<g>
		<g>
			<circle cx="247.14" cy="256" r="19.715"/>
			<circle cx="320.221" cy="256" r="19.715"/>
			<circle cx="174.073" cy="256" r="19.715"/>
			<path d="M255.993,0C114.621,0,0.002,114.614,0.002,256c0,141.377,114.623,256,255.996,256c141.386,0,256-114.623,256-256
				C511.998,114.61,397.383,0,255.993,0z M344.226,356.888l-6.126-2.926l-5.962,3.253c-10.34,5.648-22.061,8.636-33.902,8.636
				h-99.538c-39.05,0-70.823-31.773-70.823-70.823v-78.065c0-39.05,31.773-70.823,70.823-70.823h99.538
				c39.05,0,70.823,31.773,70.823,70.823v78.065c0,11.128-2.581,21.862-7.671,31.915l-2.138,4.232l1.018,4.63
				c2.306,10.451,6.259,20.198,11.819,29.148C363.295,364.231,353.947,361.527,344.226,356.888z"/>
		</g>
	</g>
</g>
</svg>